<svg width="205" height="80" viewBox="0 0 205 80" fill="none" xmlns="http://www.w3.org/2000/svg">
<rect x="1.61475" y="2.61475" width="197" height="74" fill="#3D248A"/>
<path d="M85.1226 41.2515L87.0796 30.5522H91.1577L87.5366 47.6147H83.271L80.9858 37.8882L78.7476 47.6147H74.4937L70.8608 30.5522H74.9507L76.9077 41.2515L79.2515 30.5522H82.7437L85.1226 41.2515ZM107.212 39.4351C107.212 41.0991 106.904 42.5718 106.287 43.853C105.669 45.1343 104.791 46.1226 103.65 46.8179C102.517 47.5054 101.224 47.8491 99.771 47.8491C98.3179 47.8491 97.0288 47.5171 95.9038 46.853C94.7788 46.1812 93.8999 45.2241 93.2671 43.9819C92.6421 42.7397 92.314 41.314 92.2827 39.7046V38.7437C92.2827 37.0718 92.5874 35.5991 93.1968 34.3257C93.814 33.0444 94.6929 32.0562 95.8335 31.3608C96.9819 30.6655 98.2866 30.3179 99.7476 30.3179C101.193 30.3179 102.482 30.6616 103.615 31.3491C104.748 32.0366 105.626 33.0171 106.251 34.2905C106.884 35.5562 107.205 37.0093 107.212 38.6499V39.4351ZM103.029 38.7202C103.029 37.0249 102.744 35.7397 102.173 34.8647C101.611 33.9819 100.802 33.5405 99.7476 33.5405C97.6851 33.5405 96.5952 35.0874 96.478 38.1812L96.4663 39.4351C96.4663 41.1069 96.7437 42.3921 97.2983 43.2905C97.853 44.189 98.6772 44.6382 99.771 44.6382C100.81 44.6382 101.611 44.1968 102.173 43.314C102.736 42.4312 103.021 41.1616 103.029 39.5054V38.7202ZM122.552 41.2515L124.509 30.5522H128.587L124.966 47.6147H120.701L118.416 37.8882L116.177 47.6147H111.923L108.291 30.5522H112.38L114.337 41.2515L116.681 30.5522H120.173L122.552 41.2515ZM138.994 43.0796C138.994 42.478 138.779 42.0093 138.349 41.6733C137.927 41.3374 137.181 40.9897 136.111 40.6304C135.041 40.271 134.166 39.9233 133.486 39.5874C131.275 38.5015 130.169 37.0093 130.169 35.1108C130.169 34.1655 130.443 33.3335 130.99 32.6147C131.544 31.8882 132.326 31.3257 133.333 30.9272C134.341 30.521 135.474 30.3179 136.732 30.3179C137.958 30.3179 139.056 30.5366 140.025 30.9741C141.001 31.4116 141.759 32.0366 142.298 32.8491C142.837 33.6538 143.107 34.5757 143.107 35.6147H139.005C139.005 34.9194 138.791 34.3804 138.361 33.9976C137.939 33.6147 137.365 33.4233 136.638 33.4233C135.904 33.4233 135.322 33.5874 134.892 33.9155C134.47 34.2358 134.259 34.646 134.259 35.146C134.259 35.5835 134.494 35.9819 134.962 36.3413C135.431 36.6929 136.255 37.0601 137.435 37.4429C138.615 37.8179 139.583 38.2241 140.341 38.6616C142.185 39.7241 143.107 41.189 143.107 43.0562C143.107 44.5483 142.544 45.7202 141.419 46.5718C140.294 47.4233 138.751 47.8491 136.791 47.8491C135.408 47.8491 134.154 47.603 133.029 47.1108C131.912 46.6108 131.068 45.9312 130.498 45.0718C129.935 44.2046 129.654 43.2085 129.654 42.0835H133.779C133.779 42.9976 134.013 43.6733 134.482 44.1108C134.958 44.5405 135.728 44.7554 136.791 44.7554C137.47 44.7554 138.005 44.6108 138.396 44.3218C138.794 44.0249 138.994 43.6108 138.994 43.0796ZM158.611 33.728H153.49V47.6147H149.376V33.728H144.349V30.5522H158.611V33.728ZM168.642 44.4272H163.005L162.021 47.6147H157.626L163.884 30.5522H167.751L174.056 47.6147H169.638L168.642 44.4272ZM163.99 41.2515H167.658L165.818 35.3335L163.99 41.2515ZM181.65 41.5913H179.423V47.6147H175.31V30.5522H182.025C184.048 30.5522 185.63 31.0015 186.771 31.8999C187.912 32.7983 188.482 34.0679 188.482 35.7085C188.482 36.896 188.24 37.8804 187.755 38.6616C187.279 39.4429 186.529 40.0757 185.505 40.5601L189.068 47.439V47.6147H184.662L181.65 41.5913ZM179.423 38.4155H182.025C182.806 38.4155 183.392 38.2124 183.783 37.8062C184.181 37.3921 184.38 36.8179 184.38 36.0835C184.38 35.3491 184.181 34.7749 183.783 34.3608C183.384 33.939 182.798 33.728 182.025 33.728H179.423V38.4155ZM203.775 33.728H198.654V47.6147H194.541V33.728H189.513V30.5522H203.775V33.728Z" fill="white"/>
<path d="M25.1147 14.5C21.8166 16.4042 18.9259 18.9393 16.6075 21.9607C14.2891 24.982 12.5886 28.4304 11.6029 32.109C10.6172 35.7876 10.3657 39.6242 10.8628 43.4C11.3599 47.1758 12.5958 50.8166 14.5 54.1147C16.4042 57.4129 18.9393 60.3036 21.9607 62.622C24.982 64.9404 28.4304 66.6409 32.109 67.6266C35.7876 68.6123 39.6242 68.8637 43.4 68.3666C47.1758 67.8695 50.8166 66.6336 54.1147 64.7295L39.6147 39.6147L25.1147 14.5Z" fill="#FF5784"/>
<path d="M61.3524 41.0328C60.1834 39.0081 58.6271 37.2334 56.7723 35.8101C54.9175 34.3869 52.8005 33.3429 50.5422 32.7378C48.2839 32.1327 45.9285 31.9783 43.6106 32.2835C41.2926 32.5886 39.0575 33.3474 37.0328 34.5164C35.008 35.6853 33.2334 37.2417 31.8101 39.0965C30.3869 40.9513 29.3429 43.0683 28.7378 45.3266C28.1327 47.5849 27.9783 49.9402 28.2835 52.2582C28.5886 54.5761 29.3474 56.8113 30.5163 58.836L45.9344 49.9344L61.3524 41.0328Z" fill="#00D5FF"/>
<path d="M52.7833 19.9138C50.2133 18.43 47.3761 17.4669 44.4339 17.0795C41.4917 16.6922 38.502 16.8881 35.6355 17.6562C32.769 18.4243 30.0818 19.7495 27.7274 21.556C25.3731 23.3626 23.3976 25.6152 21.9138 28.1853C20.43 30.7553 19.4669 33.5924 19.0795 36.5346C18.6922 39.4769 18.8881 42.4666 19.6562 45.3331C20.4243 48.1996 21.7494 50.8868 23.556 53.2411C25.3626 55.5955 27.6152 57.571 30.1852 59.0548L41.4843 39.4843L52.7833 19.9138Z" fill="#FFC700"/>
</svg>
