<svg width="1440" height="490" viewBox="0 0 1440 490" fill="none" xmlns="http://www.w3.org/2000/svg">
<rect x="-1" width="1441" height="490" fill="#FF5784"/>
<rect x="-1" width="1441" height="490" fill="white"/>
<circle cx="866.675" cy="233.735" r="93.7351" fill="#3D248A"/>
<circle cx="1156.15" cy="233.735" r="93.7351" fill="#00D5FF"/>
<circle cx="577.205" cy="233.735" r="93.7351" fill="#FFC700"/>
<circle cx="287.735" cy="233.735" r="93.7351" fill="#FF5784"/>
<path d="M260.264 377.308C260.264 376.81 260.089 376.429 259.737 376.165C259.385 375.896 258.753 375.614 257.839 375.321C256.924 375.022 256.201 374.729 255.668 374.442C254.214 373.657 253.488 372.6 253.488 371.27C253.488 370.578 253.681 369.963 254.068 369.424C254.461 368.879 255.02 368.454 255.747 368.149C256.479 367.845 257.299 367.692 258.208 367.692C259.122 367.692 259.936 367.859 260.651 368.193C261.366 368.521 261.92 368.987 262.312 369.591C262.711 370.194 262.91 370.88 262.91 371.647H260.273C260.273 371.062 260.089 370.607 259.719 370.285C259.35 369.957 258.832 369.793 258.164 369.793C257.519 369.793 257.018 369.931 256.661 370.206C256.303 370.476 256.125 370.833 256.125 371.278C256.125 371.694 256.333 372.043 256.749 372.324C257.171 372.605 257.789 372.869 258.603 373.115C260.103 373.566 261.196 374.126 261.881 374.794C262.567 375.462 262.91 376.294 262.91 377.29C262.91 378.397 262.491 379.268 261.653 379.9C260.815 380.527 259.687 380.841 258.269 380.841C257.285 380.841 256.388 380.662 255.58 380.305C254.771 379.941 254.153 379.446 253.725 378.819C253.303 378.192 253.092 377.466 253.092 376.64H255.738C255.738 378.052 256.582 378.758 258.269 378.758C258.896 378.758 259.385 378.632 259.737 378.38C260.089 378.122 260.264 377.765 260.264 377.308ZM274.336 370.004H270.416V380.665H267.779V370.004H263.912V367.868H274.336V370.004ZM283.547 375.119H278.484V378.547H284.425V380.665H275.847V367.868H284.408V370.004H278.484V373.054H283.547V375.119ZM288.609 376.156V380.665H285.972V367.868H290.964C291.925 367.868 292.769 368.044 293.496 368.396C294.228 368.747 294.791 369.248 295.183 369.898C295.576 370.543 295.772 371.278 295.772 372.104C295.772 373.358 295.341 374.349 294.48 375.075C293.625 375.796 292.438 376.156 290.921 376.156H288.609ZM288.609 374.021H290.964C291.662 374.021 292.192 373.856 292.555 373.528C292.924 373.2 293.109 372.731 293.109 372.122C293.109 371.495 292.924 370.988 292.555 370.602C292.186 370.215 291.676 370.016 291.026 370.004H288.609V374.021ZM307.971 380.665H305.431V370.874L302.399 371.814V369.749L307.699 367.851H307.971V380.665Z" fill="#3D248A"/>
<path d="M553.186 377.308C553.186 376.81 553.011 376.429 552.659 376.165C552.307 375.896 551.675 375.614 550.761 375.321C549.846 375.022 549.123 374.729 548.59 374.442C547.137 373.657 546.41 372.6 546.41 371.27C546.41 370.578 546.603 369.963 546.99 369.424C547.383 368.879 547.942 368.454 548.669 368.149C549.401 367.845 550.221 367.692 551.13 367.692C552.044 367.692 552.858 367.859 553.573 368.193C554.288 368.521 554.842 368.987 555.234 369.591C555.633 370.194 555.832 370.88 555.832 371.647H553.195C553.195 371.062 553.011 370.607 552.641 370.285C552.272 369.957 551.754 369.793 551.086 369.793C550.441 369.793 549.94 369.931 549.583 370.206C549.225 370.476 549.047 370.833 549.047 371.278C549.047 371.694 549.255 372.043 549.671 372.324C550.093 372.605 550.711 372.869 551.525 373.115C553.025 373.566 554.118 374.126 554.804 374.794C555.489 375.462 555.832 376.294 555.832 377.29C555.832 378.397 555.413 379.268 554.575 379.9C553.737 380.527 552.609 380.841 551.191 380.841C550.207 380.841 549.31 380.662 548.502 380.305C547.693 379.941 547.075 379.446 546.647 378.819C546.225 378.192 546.014 377.466 546.014 376.64H548.66C548.66 378.052 549.504 378.758 551.191 378.758C551.818 378.758 552.307 378.632 552.659 378.38C553.011 378.122 553.186 377.765 553.186 377.308ZM567.258 370.004H563.338V380.665H560.701V370.004H556.834V367.868H567.258V370.004ZM576.469 375.119H571.406V378.547H577.347V380.665H568.769V367.868H577.33V370.004H571.406V373.054H576.469V375.119ZM581.531 376.156V380.665H578.894V367.868H583.887C584.847 367.868 585.691 368.044 586.418 368.396C587.15 368.747 587.713 369.248 588.105 369.898C588.498 370.543 588.694 371.278 588.694 372.104C588.694 373.358 588.263 374.349 587.402 375.075C586.547 375.796 585.36 376.156 583.843 376.156H581.531ZM581.531 374.021H583.887C584.584 374.021 585.114 373.856 585.477 373.528C585.846 373.2 586.031 372.731 586.031 372.122C586.031 371.495 585.846 370.988 585.477 370.602C585.108 370.215 584.598 370.016 583.948 370.004H581.531V374.021ZM603.495 380.665H594.723V378.925L598.863 374.513C599.431 373.892 599.85 373.35 600.12 372.887C600.395 372.424 600.533 371.984 600.533 371.568C600.533 371 600.389 370.555 600.102 370.232C599.815 369.904 599.405 369.74 598.872 369.74C598.298 369.74 597.844 369.939 597.51 370.338C597.181 370.73 597.017 371.249 597.017 371.894H594.469C594.469 371.114 594.653 370.402 595.022 369.758C595.397 369.113 595.925 368.609 596.604 368.246C597.284 367.877 598.055 367.692 598.916 367.692C600.234 367.692 601.257 368.009 601.983 368.642C602.716 369.274 603.082 370.168 603.082 371.322C603.082 371.955 602.918 372.6 602.59 373.256C602.262 373.912 601.699 374.677 600.902 375.55L597.993 378.617H603.495V380.665Z" fill="#3D248A"/>
<path d="M846.108 377.308C846.108 376.81 845.933 376.429 845.581 376.165C845.229 375.896 844.597 375.614 843.683 375.321C842.769 375.022 842.045 374.729 841.512 374.442C840.059 373.657 839.332 372.6 839.332 371.27C839.332 370.578 839.525 369.963 839.912 369.424C840.305 368.879 840.864 368.454 841.591 368.149C842.323 367.845 843.144 367.692 844.052 367.692C844.966 367.692 845.78 367.859 846.495 368.193C847.21 368.521 847.764 368.987 848.156 369.591C848.555 370.194 848.754 370.88 848.754 371.647H846.117C846.117 371.062 845.933 370.607 845.563 370.285C845.194 369.957 844.676 369.793 844.008 369.793C843.363 369.793 842.862 369.931 842.505 370.206C842.147 370.476 841.969 370.833 841.969 371.278C841.969 371.694 842.177 372.043 842.593 372.324C843.015 372.605 843.633 372.869 844.447 373.115C845.947 373.566 847.04 374.126 847.726 374.794C848.411 375.462 848.754 376.294 848.754 377.29C848.754 378.397 848.335 379.268 847.497 379.9C846.659 380.527 845.531 380.841 844.113 380.841C843.129 380.841 842.232 380.662 841.424 380.305C840.615 379.941 839.997 379.446 839.569 378.819C839.147 378.192 838.937 377.466 838.937 376.64H841.582C841.582 378.052 842.426 378.758 844.113 378.758C844.74 378.758 845.229 378.632 845.581 378.38C845.933 378.122 846.108 377.765 846.108 377.308ZM860.18 370.004H856.26V380.665H853.623V370.004H849.756V367.868H860.18V370.004ZM869.391 375.119H864.328V378.547H870.27V380.665H861.691V367.868H870.252V370.004H864.328V373.054H869.391V375.119ZM874.453 376.156V380.665H871.816V367.868H876.809C877.77 367.868 878.613 368.044 879.34 368.396C880.072 368.747 880.635 369.248 881.027 369.898C881.42 370.543 881.616 371.278 881.616 372.104C881.616 373.358 881.186 374.349 880.324 375.075C879.469 375.796 878.282 376.156 876.765 376.156H874.453ZM874.453 374.021H876.809C877.506 374.021 878.036 373.856 878.399 373.528C878.769 373.2 878.953 372.731 878.953 372.122C878.953 371.495 878.769 370.988 878.399 370.602C878.03 370.215 877.521 370.016 876.87 370.004H874.453V374.021ZM890.229 373.142H891.583C892.228 373.142 892.705 372.98 893.016 372.658C893.326 372.336 893.481 371.908 893.481 371.375C893.481 370.859 893.326 370.458 893.016 370.171C892.711 369.884 892.289 369.74 891.75 369.74C891.264 369.74 890.856 369.875 890.528 370.145C890.2 370.408 890.036 370.754 890.036 371.182H887.496C887.496 370.514 887.675 369.916 888.032 369.389C888.396 368.855 888.899 368.439 889.544 368.141C890.194 367.842 890.909 367.692 891.688 367.692C893.042 367.692 894.103 368.018 894.87 368.668C895.638 369.312 896.021 370.203 896.021 371.34C896.021 371.926 895.843 372.465 895.485 372.957C895.128 373.449 894.659 373.827 894.079 374.091C894.8 374.349 895.336 374.735 895.688 375.251C896.045 375.767 896.224 376.376 896.224 377.079C896.224 378.216 895.808 379.127 894.976 379.812C894.149 380.498 893.054 380.841 891.688 380.841C890.411 380.841 889.365 380.504 888.551 379.83C887.742 379.156 887.338 378.266 887.338 377.158H889.878C889.878 377.639 890.057 378.031 890.414 378.336C890.777 378.641 891.223 378.793 891.75 378.793C892.354 378.793 892.825 378.635 893.165 378.318C893.511 377.996 893.684 377.571 893.684 377.044C893.684 375.767 892.98 375.128 891.574 375.128H890.229V373.142Z" fill="#3D248A"/>
<path d="M1139.03 377.308C1139.03 376.81 1138.85 376.429 1138.5 376.165C1138.15 375.896 1137.52 375.614 1136.6 375.321C1135.69 375.022 1134.97 374.729 1134.43 374.442C1132.98 373.657 1132.25 372.6 1132.25 371.27C1132.25 370.578 1132.45 369.963 1132.83 369.424C1133.23 368.879 1133.79 368.454 1134.51 368.149C1135.25 367.845 1136.07 367.692 1136.97 367.692C1137.89 367.692 1138.7 367.859 1139.42 368.193C1140.13 368.521 1140.69 368.987 1141.08 369.591C1141.48 370.194 1141.68 370.88 1141.68 371.647H1139.04C1139.04 371.062 1138.85 370.607 1138.49 370.285C1138.12 369.957 1137.6 369.793 1136.93 369.793C1136.29 369.793 1135.78 369.931 1135.43 370.206C1135.07 370.476 1134.89 370.833 1134.89 371.278C1134.89 371.694 1135.1 372.043 1135.51 372.324C1135.94 372.605 1136.55 372.869 1137.37 373.115C1138.87 373.566 1139.96 374.126 1140.65 374.794C1141.33 375.462 1141.68 376.294 1141.68 377.29C1141.68 378.397 1141.26 379.268 1140.42 379.9C1139.58 380.527 1138.45 380.841 1137.04 380.841C1136.05 380.841 1135.15 380.662 1134.35 380.305C1133.54 379.941 1132.92 379.446 1132.49 378.819C1132.07 378.192 1131.86 377.466 1131.86 376.64H1134.5C1134.5 378.052 1135.35 378.758 1137.04 378.758C1137.66 378.758 1138.15 378.632 1138.5 378.38C1138.85 378.122 1139.03 377.765 1139.03 377.308ZM1153.1 370.004H1149.18V380.665H1146.55V370.004H1142.68V367.868H1153.1V370.004ZM1162.31 375.119H1157.25V378.547H1163.19V380.665H1154.61V367.868H1163.17V370.004H1157.25V373.054H1162.31V375.119ZM1167.38 376.156V380.665H1164.74V367.868H1169.73C1170.69 367.868 1171.54 368.044 1172.26 368.396C1172.99 368.747 1173.56 369.248 1173.95 369.898C1174.34 370.543 1174.54 371.278 1174.54 372.104C1174.54 373.358 1174.11 374.349 1173.25 375.075C1172.39 375.796 1171.2 376.156 1169.69 376.156H1167.38ZM1167.38 374.021H1169.73C1170.43 374.021 1170.96 373.856 1171.32 373.528C1171.69 373.2 1171.88 372.731 1171.88 372.122C1171.88 371.495 1171.69 370.988 1171.32 370.602C1170.95 370.215 1170.44 370.016 1169.79 370.004H1167.38V374.021ZM1188.08 375.849H1189.53V377.896H1188.08V380.665H1185.54V377.896H1180.3L1180.18 376.297L1185.52 367.868H1188.08V375.849ZM1182.71 375.849H1185.54V371.331L1185.38 371.621L1182.71 375.849Z" fill="#3D248A"/>
<path d="M263.283 199H259.552V216.774H263.283V199Z" fill="white"/>
<path d="M279.241 199H275.51V216.774H279.241V199Z" fill="white"/>
<path d="M295.199 199H291.467V216.774H295.199V199Z" fill="white"/>
<path d="M311.108 199H307.376V216.774H311.108V199Z" fill="white"/>
<path d="M285.821 242.111H259.257V246.431H285.821V242.111Z" fill="white"/>
<path d="M274.233 252.176H259.257V256.497H274.233V252.176Z" fill="white"/>
<path d="M325.691 268.969H246V205.334H325.691V268.969ZM249.437 265.581H322.254V208.771H249.437V265.581Z" fill="white"/>
<path d="M562.767 275.792C558.121 275.792 553.67 273.983 550.296 270.608L541.639 261.952L559.832 243.759L566.581 250.508C567.315 251.242 568.244 251.633 569.271 251.633C570.298 251.633 571.227 251.242 571.961 250.508L586.779 235.69C588.247 234.223 588.247 231.777 586.779 230.31L579.981 223.61L598.174 205.417L606.831 214.074C610.988 218.231 612.797 224.197 611.672 229.968C610.988 233.391 609.325 236.521 606.831 239.015L575.238 270.608C572.743 273.103 569.613 274.765 566.19 275.45C565.065 275.695 563.892 275.792 562.767 275.792ZM546.921 261.952L552.937 267.968C556.213 271.244 560.908 272.662 565.457 271.782C568.146 271.244 570.64 269.924 572.597 267.968L604.19 236.374C606.146 234.418 607.466 231.973 608.004 229.234C608.885 224.686 607.466 219.991 604.19 216.714L598.174 210.699L585.263 223.61L589.371 227.718C592.306 230.653 592.306 235.445 589.371 238.38L574.602 253.198C573.184 254.616 571.276 255.399 569.271 255.399C567.266 255.399 565.359 254.616 563.94 253.198L559.832 249.09L546.921 261.952Z" fill="white"/>
<path d="M571.684 231.592L562.07 221.979L559.442 224.607L569.055 234.22L571.684 231.592Z" fill="white"/>
<path d="M573.111 214.426L563.497 204.812L560.869 207.441L570.483 217.054L573.111 214.426Z" fill="white"/>
<path d="M899.436 207.584H833.794V211.65H899.436V207.584Z" fill="white"/>
<path d="M901.469 277.292H831.761V234.708H835.827V273.226H897.349V234.708H901.469V277.292Z" fill="white"/>
<path d="M919.176 236.794H814L832.671 207.584H900.506L919.176 236.794ZM821.436 232.675H911.687L898.259 211.704H834.918L821.436 232.675Z" fill="white"/>
<path d="M879.588 210.42L875.79 208.868C876.271 207.638 876.539 206.354 876.539 205.07C876.539 199.56 872.045 195.119 866.588 195.119C861.131 195.119 856.638 199.56 856.638 205.07C856.638 206.407 856.905 207.691 857.387 208.868L853.588 210.42C852.893 208.708 852.518 206.889 852.518 205.07C852.518 197.313 858.831 191 866.588 191C874.345 191 880.658 197.313 880.658 205.07C880.658 206.942 880.284 208.708 879.588 210.42Z" fill="white"/>
<path d="M889.004 255.411H879.428V260.119H889.004V255.411Z" fill="white"/>
<path d="M1171.45 261.438L1155.44 245.43L1145.13 255.801C1141.58 259.352 1136.84 261.325 1131.83 261.325C1126.81 261.325 1122.07 259.352 1118.52 255.801C1114.97 252.25 1113 247.516 1113 242.499C1113 237.482 1114.97 232.748 1118.52 229.197L1118.64 229.084C1122.19 225.533 1126.92 223.56 1131.94 223.56C1136.96 223.56 1141.69 225.533 1145.24 229.084L1155.5 239.342L1175.06 219.783L1178.1 222.827L1158.49 242.386L1174.5 258.394L1171.45 261.438ZM1131.94 227.9C1128.05 227.9 1124.44 229.422 1121.68 232.128L1121.57 232.24C1118.81 235.002 1117.34 238.61 1117.34 242.499C1117.34 246.388 1118.86 249.996 1121.57 252.758C1124.33 255.52 1127.94 256.985 1131.83 256.985C1135.72 256.985 1139.32 255.463 1142.08 252.758L1152.46 242.386L1142.14 232.128C1139.44 229.422 1135.77 227.9 1131.94 227.9Z" fill="white"/>
<path d="M1146.99 253.885L1143.94 250.841L1163.5 231.282L1149.92 217.641L1152.96 214.598L1166.55 228.238L1176.92 217.867C1184.25 210.539 1196.2 210.539 1203.52 217.867C1210.85 225.194 1210.85 237.144 1203.52 244.472L1203.41 244.584C1199.86 248.135 1195.13 250.108 1190.11 250.108C1185.09 250.108 1180.36 248.135 1176.81 244.584L1166.55 234.269L1146.99 253.885ZM1169.59 231.282L1179.85 241.484C1182.61 244.246 1186.22 245.712 1190.11 245.712C1194 245.712 1197.61 244.19 1200.37 241.484L1200.48 241.371C1206.12 235.735 1206.12 226.491 1200.48 220.854C1194.84 215.218 1185.6 215.218 1179.96 220.854L1169.59 231.282Z" fill="white"/>
<path d="M1177.71 273.895C1175.28 273.895 1173.03 272.937 1171.34 271.246C1169.65 269.555 1168.69 267.3 1168.69 264.876C1168.69 262.452 1169.65 260.198 1171.34 258.507C1173.03 256.816 1175.28 255.858 1177.71 255.858C1180.13 255.858 1182.39 256.816 1184.08 258.507C1185.77 260.198 1186.73 262.452 1186.73 264.876C1186.73 267.3 1185.77 269.555 1184.08 271.246C1182.39 272.937 1180.13 273.895 1177.71 273.895ZM1177.71 260.198C1176.47 260.198 1175.28 260.705 1174.38 261.551C1173.48 262.396 1173.03 263.636 1173.03 264.876C1173.03 266.116 1173.54 267.3 1174.38 268.202C1175.28 269.104 1176.47 269.555 1177.71 269.555C1178.95 269.555 1180.13 269.047 1181.03 268.202C1181.94 267.356 1182.39 266.116 1182.39 264.876C1182.39 263.636 1181.88 262.452 1181.03 261.551C1180.19 260.649 1179 260.198 1177.71 260.198Z" fill="white"/>
<path d="M1146.82 220.009C1144.4 220.009 1142.14 219.051 1140.45 217.36C1136.96 213.865 1136.96 208.116 1140.45 204.621C1143.94 201.126 1149.69 201.126 1153.19 204.621C1156.68 208.116 1156.68 213.865 1153.19 217.36C1151.5 219.107 1149.24 220.009 1146.82 220.009ZM1146.82 206.312C1145.64 206.312 1144.4 206.763 1143.49 207.665C1141.63 209.525 1141.63 212.456 1143.49 214.316C1144.4 215.218 1145.58 215.669 1146.82 215.669C1148.06 215.669 1149.24 215.161 1150.15 214.316C1152.01 212.456 1152.01 209.525 1150.15 207.665C1149.24 206.763 1148.06 206.312 1146.82 206.312Z" fill="white"/>
<path d="M400 241.397H463.091" stroke="black" stroke-width="4" stroke-linecap="round" stroke-linejoin="round" stroke-dasharray="1 12"/>
<path d="M692 241.397H755.091" stroke="black" stroke-width="4" stroke-linecap="round" stroke-linejoin="round" stroke-dasharray="1 12"/>
<path d="M982 241.397H1045.09" stroke="black" stroke-width="4" stroke-linecap="round" stroke-linejoin="round" stroke-dasharray="1 12"/>
<path d="M516.384 82H511.954V70.627H500.51V82H496.063V56.4062H500.51V67.0586H511.954V56.4062H516.384V82ZM520.444 72.3145C520.444 70.4512 520.813 68.7754 521.551 67.2871C522.29 65.7871 523.327 64.6387 524.663 63.8418C525.999 63.0332 527.534 62.6289 529.268 62.6289C531.835 62.6289 533.915 63.4551 535.509 65.1074C537.114 66.7598 537.981 68.9512 538.11 71.6816L538.128 72.6836C538.128 74.5586 537.764 76.2344 537.038 77.7109C536.323 79.1875 535.292 80.3301 533.944 81.1387C532.608 81.9473 531.061 82.3516 529.303 82.3516C526.62 82.3516 524.469 81.4609 522.852 79.6797C521.247 77.8867 520.444 75.502 520.444 72.5254V72.3145ZM524.716 72.6836C524.716 74.6406 525.12 76.1758 525.928 77.2891C526.737 78.3906 527.862 78.9414 529.303 78.9414C530.745 78.9414 531.864 78.3789 532.661 77.2539C533.469 76.1289 533.874 74.4824 533.874 72.3145C533.874 70.3926 533.458 68.8691 532.626 67.7441C531.805 66.6191 530.686 66.0566 529.268 66.0566C527.874 66.0566 526.766 66.6133 525.946 67.7266C525.126 68.8281 524.716 70.4805 524.716 72.6836ZM558.448 76.1113L561.471 62.9805H565.637L560.452 82H556.936L552.858 68.9395L548.85 82H545.335L540.132 62.9805H544.298L547.374 75.9707L551.276 62.9805H554.493L558.448 76.1113ZM584.112 75.8828L587.979 62.9805H592.532L584.973 84.8828C583.813 88.082 581.844 89.6816 579.067 89.6816C578.446 89.6816 577.76 89.5762 577.01 89.3652V86.0605L577.819 86.1133C578.897 86.1133 579.706 85.9141 580.245 85.5156C580.796 85.1289 581.229 84.4727 581.546 83.5469L582.161 81.9121L575.481 62.9805H580.087L584.112 75.8828ZM593.921 72.3145C593.921 70.4512 594.29 68.7754 595.028 67.2871C595.766 65.7871 596.803 64.6387 598.139 63.8418C599.475 63.0332 601.01 62.6289 602.745 62.6289C605.311 62.6289 607.391 63.4551 608.985 65.1074C610.591 66.7598 611.458 68.9512 611.587 71.6816L611.604 72.6836C611.604 74.5586 611.241 76.2344 610.514 77.7109C609.8 79.1875 608.768 80.3301 607.421 81.1387C606.085 81.9473 604.538 82.3516 602.78 82.3516C600.096 82.3516 597.946 81.4609 596.329 79.6797C594.723 77.8867 593.921 75.502 593.921 72.5254V72.3145ZM598.192 72.6836C598.192 74.6406 598.596 76.1758 599.405 77.2891C600.214 78.3906 601.339 78.9414 602.78 78.9414C604.221 78.9414 605.341 78.3789 606.137 77.2539C606.946 76.1289 607.35 74.4824 607.35 72.3145C607.35 70.3926 606.934 68.8691 606.102 67.7441C605.282 66.6191 604.163 66.0566 602.745 66.0566C601.35 66.0566 600.243 66.6133 599.423 67.7266C598.602 68.8281 598.192 70.4805 598.192 72.6836ZM626.739 80.1367C625.485 81.6133 623.704 82.3516 621.395 82.3516C619.333 82.3516 617.768 81.748 616.702 80.541C615.647 79.334 615.12 77.5879 615.12 75.3027V62.9805H619.391V75.25C619.391 77.6641 620.393 78.8711 622.397 78.8711C624.471 78.8711 625.872 78.127 626.598 76.6387V62.9805H630.87V82H626.844L626.739 80.1367ZM651.999 78.9414C653.065 78.9414 653.95 78.6309 654.653 78.0098C655.356 77.3887 655.731 76.6211 655.778 75.707H659.803C659.757 76.8906 659.387 77.998 658.696 79.0293C658.005 80.0488 657.067 80.8574 655.884 81.4551C654.7 82.0527 653.423 82.3516 652.051 82.3516C649.391 82.3516 647.282 81.4902 645.723 79.7676C644.165 78.0449 643.385 75.666 643.385 72.6309V72.1914C643.385 69.2969 644.159 66.9824 645.706 65.248C647.253 63.502 649.362 62.6289 652.034 62.6289C654.296 62.6289 656.135 63.291 657.553 64.6152C658.983 65.9277 659.733 67.6562 659.803 69.8008H655.778C655.731 68.7109 655.356 67.8145 654.653 67.1113C653.962 66.4082 653.077 66.0566 651.999 66.0566C650.616 66.0566 649.55 66.5605 648.8 67.5684C648.05 68.5645 647.669 70.082 647.657 72.1211V72.8066C647.657 74.8691 648.026 76.4102 648.764 77.4297C649.514 78.4375 650.592 78.9414 651.999 78.9414ZM674.393 82C674.206 81.6367 674.042 81.0449 673.901 80.2246C672.542 81.6426 670.878 82.3516 668.909 82.3516C666.999 82.3516 665.44 81.8066 664.233 80.7168C663.026 79.627 662.423 78.2793 662.423 76.6738C662.423 74.6465 663.173 73.0938 664.673 72.0156C666.184 70.9258 668.341 70.3809 671.141 70.3809H673.76V69.1328C673.76 68.1484 673.485 67.3633 672.934 66.7773C672.384 66.1797 671.546 65.8809 670.421 65.8809C669.448 65.8809 668.651 66.127 668.03 66.6191C667.409 67.0996 667.098 67.7148 667.098 68.4648H662.827C662.827 67.4219 663.173 66.4492 663.864 65.5469C664.555 64.6328 665.493 63.918 666.676 63.4023C667.872 62.8867 669.202 62.6289 670.667 62.6289C672.893 62.6289 674.669 63.1914 675.993 64.3164C677.317 65.4297 677.997 67 678.032 69.0273V77.6055C678.032 79.3164 678.272 80.6816 678.753 81.7012V82H674.393ZM669.7 78.9238C670.544 78.9238 671.335 78.7188 672.073 78.3086C672.823 77.8984 673.385 77.3477 673.76 76.6562V73.0703H671.458C669.876 73.0703 668.686 73.3457 667.889 73.8965C667.092 74.4473 666.694 75.2266 666.694 76.2344C666.694 77.0547 666.964 77.7109 667.503 78.2031C668.053 78.6836 668.786 78.9238 669.7 78.9238ZM686.469 62.9805L686.592 65.1777C687.999 63.4785 689.844 62.6289 692.13 62.6289C696.091 62.6289 698.106 64.8965 698.176 69.4316V82H693.905V69.6777C693.905 68.4707 693.641 67.5801 693.114 67.0059C692.598 66.4199 691.749 66.127 690.565 66.127C688.842 66.127 687.559 66.9062 686.716 68.4648V82H682.444V62.9805H686.469ZM723.032 80.1367C721.778 81.6133 719.997 82.3516 717.688 82.3516C715.626 82.3516 714.061 81.748 712.995 80.541C711.94 79.334 711.413 77.5879 711.413 75.3027V62.9805H715.684V75.25C715.684 77.6641 716.686 78.8711 718.69 78.8711C720.764 78.8711 722.165 78.127 722.891 76.6387V62.9805H727.163V82H723.137L723.032 80.1367ZM742.175 76.832C742.175 76.0703 741.858 75.4902 741.225 75.0918C740.604 74.6934 739.567 74.3418 738.114 74.0371C736.661 73.7324 735.448 73.3457 734.475 72.877C732.342 71.8457 731.276 70.3516 731.276 68.3945C731.276 66.7539 731.967 65.3828 733.35 64.2812C734.733 63.1797 736.491 62.6289 738.624 62.6289C740.897 62.6289 742.731 63.1914 744.126 64.3164C745.532 65.4414 746.235 66.9004 746.235 68.6934H741.964C741.964 67.873 741.659 67.1934 741.05 66.6543C740.44 66.1035 739.632 65.8281 738.624 65.8281C737.686 65.8281 736.919 66.0449 736.321 66.4785C735.735 66.9121 735.442 67.4922 735.442 68.2188C735.442 68.875 735.717 69.3848 736.268 69.748C736.819 70.1113 737.932 70.4805 739.608 70.8555C741.284 71.2188 742.596 71.6582 743.546 72.1738C744.507 72.6777 745.216 73.2871 745.673 74.002C746.141 74.7168 746.376 75.584 746.376 76.6035C746.376 78.3145 745.667 79.7031 744.249 80.7695C742.831 81.8242 740.973 82.3516 738.676 82.3516C737.118 82.3516 735.729 82.0703 734.51 81.5078C733.292 80.9453 732.342 80.1719 731.663 79.1875C730.983 78.2031 730.643 77.1426 730.643 76.0059H734.792C734.85 77.0137 735.231 77.793 735.934 78.3438C736.637 78.8828 737.569 79.1523 738.729 79.1523C739.854 79.1523 740.71 78.9414 741.296 78.5195C741.882 78.0859 742.175 77.5234 742.175 76.832ZM758.487 82.3516C755.78 82.3516 753.583 81.502 751.895 79.8027C750.219 78.0918 749.382 75.8184 749.382 72.9824V72.4551C749.382 70.5566 749.745 68.8633 750.471 67.375C751.21 65.875 752.241 64.709 753.565 63.877C754.889 63.0449 756.366 62.6289 757.995 62.6289C760.585 62.6289 762.583 63.4551 763.989 65.1074C765.407 66.7598 766.116 69.0977 766.116 72.1211V73.8438H753.688C753.817 75.4141 754.339 76.6562 755.253 77.5703C756.178 78.4844 757.339 78.9414 758.733 78.9414C760.69 78.9414 762.284 78.1504 763.514 76.5684L765.817 78.7656C765.055 79.9023 764.036 80.7871 762.759 81.4199C761.493 82.041 760.069 82.3516 758.487 82.3516ZM757.977 66.0566C756.805 66.0566 755.856 66.4668 755.13 67.2871C754.415 68.1074 753.958 69.25 753.759 70.7148H761.897V70.3984C761.803 68.9688 761.423 67.8906 760.755 67.1641C760.087 66.4258 759.161 66.0566 757.977 66.0566ZM777.612 72.3145C777.612 70.4512 777.981 68.7754 778.719 67.2871C779.458 65.7871 780.495 64.6387 781.831 63.8418C783.167 63.0332 784.702 62.6289 786.436 62.6289C789.003 62.6289 791.083 63.4551 792.676 65.1074C794.282 66.7598 795.149 68.9512 795.278 71.6816L795.296 72.6836C795.296 74.5586 794.932 76.2344 794.206 77.7109C793.491 79.1875 792.46 80.3301 791.112 81.1387C789.776 81.9473 788.229 82.3516 786.471 82.3516C783.788 82.3516 781.637 81.4609 780.02 79.6797C778.415 77.8867 777.612 75.502 777.612 72.5254V72.3145ZM781.884 72.6836C781.884 74.6406 782.288 76.1758 783.096 77.2891C783.905 78.3906 785.03 78.9414 786.471 78.9414C787.913 78.9414 789.032 78.3789 789.829 77.2539C790.637 76.1289 791.042 74.4824 791.042 72.3145C791.042 70.3926 790.626 68.8691 789.794 67.7441C788.973 66.6191 787.854 66.0566 786.436 66.0566C785.042 66.0566 783.934 66.6133 783.114 67.7266C782.294 68.8281 781.884 70.4805 781.884 72.6836ZM810.43 80.1367C809.176 81.6133 807.395 82.3516 805.087 82.3516C803.024 82.3516 801.46 81.748 800.393 80.541C799.339 79.334 798.811 77.5879 798.811 75.3027V62.9805H803.083V75.25C803.083 77.6641 804.085 78.8711 806.089 78.8711C808.163 78.8711 809.563 78.127 810.29 76.6387V62.9805H814.561V82H810.536L810.43 80.1367ZM828.87 66.8828C828.307 66.7891 827.727 66.7422 827.13 66.7422C825.173 66.7422 823.854 67.4922 823.175 68.9922V82H818.903V62.9805H822.981L823.087 65.1074C824.118 63.4551 825.548 62.6289 827.376 62.6289C827.985 62.6289 828.489 62.7109 828.887 62.875L828.87 66.8828ZM851.194 76.832C851.194 76.0703 850.878 75.4902 850.245 75.0918C849.624 74.6934 848.587 74.3418 847.134 74.0371C845.68 73.7324 844.467 73.3457 843.495 72.877C841.362 71.8457 840.296 70.3516 840.296 68.3945C840.296 66.7539 840.987 65.3828 842.37 64.2812C843.753 63.1797 845.51 62.6289 847.643 62.6289C849.917 62.6289 851.751 63.1914 853.145 64.3164C854.551 65.4414 855.255 66.9004 855.255 68.6934H850.983C850.983 67.873 850.678 67.1934 850.069 66.6543C849.46 66.1035 848.651 65.8281 847.643 65.8281C846.706 65.8281 845.938 66.0449 845.341 66.4785C844.755 66.9121 844.462 67.4922 844.462 68.2188C844.462 68.875 844.737 69.3848 845.288 69.748C845.839 70.1113 846.952 70.4805 848.628 70.8555C850.303 71.2188 851.616 71.6582 852.565 72.1738C853.526 72.6777 854.235 73.2871 854.692 74.002C855.161 74.7168 855.395 75.584 855.395 76.6035C855.395 78.3145 854.686 79.7031 853.268 80.7695C851.85 81.8242 849.993 82.3516 847.696 82.3516C846.137 82.3516 844.749 82.0703 843.53 81.5078C842.311 80.9453 841.362 80.1719 840.682 79.1875C840.003 78.2031 839.663 77.1426 839.663 76.0059H843.811C843.87 77.0137 844.251 77.793 844.954 78.3438C845.657 78.8828 846.589 79.1523 847.749 79.1523C848.874 79.1523 849.729 78.9414 850.315 78.5195C850.901 78.0859 851.194 77.5234 851.194 76.832ZM867.507 82.3516C864.8 82.3516 862.602 81.502 860.915 79.8027C859.239 78.0918 858.401 75.8184 858.401 72.9824V72.4551C858.401 70.5566 858.764 68.8633 859.491 67.375C860.229 65.875 861.26 64.709 862.585 63.877C863.909 63.0449 865.385 62.6289 867.014 62.6289C869.604 62.6289 871.602 63.4551 873.009 65.1074C874.426 66.7598 875.135 69.0977 875.135 72.1211V73.8438H862.708C862.837 75.4141 863.358 76.6562 864.272 77.5703C865.198 78.4844 866.358 78.9414 867.753 78.9414C869.71 78.9414 871.303 78.1504 872.534 76.5684L874.837 78.7656C874.075 79.9023 873.055 80.7871 871.778 81.4199C870.512 82.041 869.089 82.3516 867.507 82.3516ZM866.997 66.0566C865.825 66.0566 864.876 66.4668 864.149 67.2871C863.434 68.1074 862.977 69.25 862.778 70.7148H870.917V70.3984C870.823 68.9688 870.442 67.8906 869.774 67.1641C869.106 66.4258 868.18 66.0566 866.997 66.0566ZM888.425 66.8828C887.862 66.7891 887.282 66.7422 886.684 66.7422C884.727 66.7422 883.409 67.4922 882.729 68.9922V82H878.458V62.9805H882.536L882.641 65.1074C883.673 63.4551 885.102 62.6289 886.93 62.6289C887.54 62.6289 888.044 62.7109 888.442 62.875L888.425 66.8828ZM898.145 76.5859L902.171 62.9805H906.583L899.991 82H896.282L889.637 62.9805H894.067L898.145 76.5859ZM913.807 82H909.536V62.9805H913.807V82ZM909.272 58.041C909.272 57.3848 909.477 56.8398 909.887 56.4062C910.309 55.9727 910.907 55.7559 911.68 55.7559C912.454 55.7559 913.051 55.9727 913.473 56.4062C913.895 56.8398 914.106 57.3848 914.106 58.041C914.106 58.6855 913.895 59.2246 913.473 59.6582C913.051 60.0801 912.454 60.291 911.68 60.291C910.907 60.291 910.309 60.0801 909.887 59.6582C909.477 59.2246 909.272 58.6855 909.272 58.041ZM926.288 78.9414C927.354 78.9414 928.239 78.6309 928.942 78.0098C929.645 77.3887 930.02 76.6211 930.067 75.707H934.092C934.046 76.8906 933.676 77.998 932.985 79.0293C932.294 80.0488 931.356 80.8574 930.173 81.4551C928.989 82.0527 927.712 82.3516 926.341 82.3516C923.68 82.3516 921.571 81.4902 920.012 79.7676C918.454 78.0449 917.675 75.666 917.675 72.6309V72.1914C917.675 69.2969 918.448 66.9824 919.995 65.248C921.542 63.502 923.651 62.6289 926.323 62.6289C928.585 62.6289 930.425 63.291 931.842 64.6152C933.272 65.9277 934.022 67.6562 934.092 69.8008H930.067C930.02 68.7109 929.645 67.8145 928.942 67.1113C928.251 66.4082 927.366 66.0566 926.288 66.0566C924.905 66.0566 923.839 66.5605 923.089 67.5684C922.339 68.5645 921.958 70.082 921.946 72.1211V72.8066C921.946 74.8691 922.315 76.4102 923.053 77.4297C923.803 78.4375 924.882 78.9414 926.288 78.9414ZM945.694 82.3516C942.987 82.3516 940.79 81.502 939.102 79.8027C937.426 78.0918 936.589 75.8184 936.589 72.9824V72.4551C936.589 70.5566 936.952 68.8633 937.678 67.375C938.417 65.875 939.448 64.709 940.772 63.877C942.096 63.0449 943.573 62.6289 945.202 62.6289C947.792 62.6289 949.79 63.4551 951.196 65.1074C952.614 66.7598 953.323 69.0977 953.323 72.1211V73.8438H940.895C941.024 75.4141 941.546 76.6562 942.46 77.5703C943.385 78.4844 944.546 78.9414 945.94 78.9414C947.897 78.9414 949.491 78.1504 950.721 76.5684L953.024 78.7656C952.262 79.9023 951.243 80.7871 949.966 81.4199C948.7 82.041 947.276 82.3516 945.694 82.3516ZM945.184 66.0566C944.012 66.0566 943.063 66.4668 942.337 67.2871C941.622 68.1074 941.165 69.25 940.966 70.7148H949.104V70.3984C949.01 68.9688 948.63 67.8906 947.962 67.1641C947.294 66.4258 946.368 66.0566 945.184 66.0566Z" fill="#3D248A"/>
</svg>
